<?xml version="1.0" encoding="utf-8"?>
<!-- Generator: Adobe Illustrator 27.5.0, SVG Export Plug-In . SVG Version: 6.00 Build 0)  -->
<svg version="1.1" id="Layer_1" xmlns="http://www.w3.org/2000/svg" xmlns:xlink="http://www.w3.org/1999/xlink" x="0px" y="0px"
	 viewBox="0 0 1200.24 1200.24" style="enable-background:new 0 0 1200.24 1200.24;" xml:space="preserve">
<g>
	<g>
		<path style="fill:#FF58AA;" d="M540.049,603.616l-68.867,4.729c-31.643,0-56.967-25.695-56.967-57.342l-5.145-87.074
			c0-31.643,25.742-57.342,57.385-57.342l31.808,3.188c-1.009,3.983-1.488,8.176-1.488,12.423l11.469,130.928
			C508.244,574.845,521.039,593.745,540.049,603.616z"/>
		<path style="fill:#84F23B;" d="M793.998,551.003c0,31.647-25.7,57.342-57.344,57.342l-67.005-6.637
			c17.149-10.248,28.46-28.138,28.46-48.581l17.252-136.237c0-3.079-0.261-6.16-0.745-9.133l16.78-1.17
			c31.643,0,57.282,25.699,57.282,57.342L793.998,551.003z"/>
		<path style="fill:#B84DB7;" d="M628.764,597.674c-0.688,0.051-1.429,0.051-2.125,0.051l-86.589,5.891
			c-19.01-9.872-31.806-28.772-31.806-50.488L496.775,422.2c0-4.247,0.478-8.441,1.488-12.423l76.813,7.484
			c-30.847,0.901-53.956,26.23-53.956,57.287v60.53c0,31.641,24.063,57.34,55.761,57.34L628.764,597.674z"/>
		<path style="fill:#12F5E2;" d="M679.12,479.859v60.528c0,30.949-21.486,56.168-52.125,57.287l-50.996-5.256
			c-31.699,0-54.879-25.699-54.879-57.34v-60.53c0-31.057,23.109-56.386,53.956-57.287l50.512,5.256
			C657.284,422.517,679.12,448.216,679.12,479.859z"/>
		<path style="fill:#13C08A;" d="M715.361,416.891l-17.252,136.237c0,20.443-11.311,38.333-28.46,48.581l-42.654-4.035
			c30.639-1.119,52.125-26.338,52.125-57.287v-60.528c0-31.643-22.602-57.342-54.299-57.342l-52.153-5.256
			c0.578-0.053,1.61-0.053,2.19-0.053l139.531-9.45C714.873,410.731,715.361,413.811,715.361,416.891z"/>
		<path style="fill:#12F5E2;" d="M669.649,602.771c-9.719,5.885-21.236,10.35-33.662,10.35h-65.626
			c-11.041,0-21.34-3.717-30.312-8.445l86.589-6.421c0.696,0,1.438,0.266,2.125,0.217L669.649,602.771z"/>
		<path style="fill:#12F5E2;" d="M573.55,417.261l-75.288-7.484c6.056-26.069,30.847-45.556,60.634-45.556l94.342-5.364
			c31.008,0,56.705,21.236,61.377,48.901l-139.314,9.45C574.72,417.208,574.134,417.208,573.55,417.261z"/>
		<path style="fill:#00112D;" d="M703.563,501.378c0,55.254-50.104,105.359-105.359,105.359c-55.258,0-94.746-44.794-94.746-100.052
			c0-55.256,39.488-100.053,94.746-100.053C653.459,406.632,703.563,446.12,703.563,501.378z"/>
		<path style="fill:#FFFFFF;" d="M676.828,506.258c0,42.509-38.541,81.061-81.063,81.061c-42.512,0-72.885-34.465-72.885-76.977
			c0-42.513,30.373-76.977,72.885-76.977C638.287,433.365,676.828,463.747,676.828,506.258z"/>
		<path style="fill:#00112D;" d="M686.567,498.94c0,43.921-39.831,83.749-83.747,83.749c-43.923,0-75.312-35.607-75.312-79.528
			s31.389-79.533,75.312-79.533C646.736,423.628,686.567,455.017,686.567,498.94z"/>
		<path style="fill:#FFFFFF;" d="M655.588,453.617c0,5.616-5.087,10.708-10.708,10.708c-5.616,0-9.629-4.552-9.629-10.168
			c0-5.618,4.013-10.17,9.629-10.17C650.501,443.985,655.588,447.998,655.588,453.617z"/>
		<path style="fill:#FFFFFF;" d="M671.688,475.756c0,3.142-2.85,5.995-5.999,5.995c-3.146,0-5.389-2.548-5.389-5.694
			c0-3.148,2.242-5.696,5.389-5.696C668.839,470.362,671.688,472.608,671.688,475.756z"/>
	</g>
	<g>
		<path d="M362.927,714.141c-2.06,0-4.039,0.598-5.932,1.799c-1.891,1.2-3.49,2.56-4.794,4.073l-18.255,21.974v26.193
			c0,0.411,0.055,0.847,0.155,1.29c0.106,0.447,0.224,0.879,0.358,1.286c0.482,1.311,1.223,2.515,2.218,3.614
			c0.995,1.099,2.149,1.652,3.457,1.652h1.548v2.16h-23.931v-2.16h1.551c1.235,0,2.369-0.554,3.404-1.652
			c1.03-1.1,1.781-2.304,2.269-3.614c0.134-0.407,0.258-0.839,0.358-1.286c0.104-0.443,0.153-0.879,0.153-1.29v-24.648
			l-19.493-23.519c-1.17-1.302-2.592-2.494-4.279-3.557c-1.685-1.063-3.457-1.771-5.307-2.116c-0.35-0.069-0.726-0.118-1.135-0.154
			c-0.419-0.033-0.798-0.045-1.14-0.045v-2.271h29.911v2.271h-4.849c-0.134,0-0.254,0-0.358,0c-0.1,0-0.224,0-0.36,0
			c-0.348,0.069-0.655,0.167-0.93,0.305c-0.272,0.143-0.482,0.342-0.621,0.615c-0.071,0.073-0.1,0.158-0.1,0.265
			c0,0.102,0,0.219,0,0.361c0,0.131,0.014,0.289,0.049,0.46c0.035,0.175,0.089,0.33,0.159,0.464c0.065,0.347,0.206,0.688,0.409,1.03
			c0.209,0.346,0.413,0.659,0.617,0.932c0.069,0.069,0.159,0.175,0.258,0.306c0.106,0.143,0.189,0.248,0.258,0.309l14.545,17.541
			l13.199-15.786c0.417-0.55,0.757-1.095,1.036-1.648c0.272-0.546,0.413-1.136,0.413-1.754c0-0.208-0.016-0.411-0.055-0.619
			c-0.033-0.207-0.122-0.415-0.259-0.618c-0.271-0.688-0.736-1.222-1.39-1.6c-0.651-0.375-1.359-0.562-2.114-0.562h-2.169v-2.271
			c3.852,0,7.721,0,11.601,0c3.891,0,7.723,0,11.505,0v2.271H362.927z"/>
		<path d="M425.378,769.417c-6.77,6.809-14.906,10.211-24.39,10.211c-9.422,0-17.533-3.402-24.338-10.211
			c-6.813-6.801-10.215-14.92-10.215-24.338c0-9.495,3.402-17.65,10.215-24.5c6.805-6.842,14.916-10.256,24.338-10.256
			c9.484,0,17.62,3.414,24.39,10.256c6.776,6.85,10.161,15.005,10.161,24.5C435.539,754.497,432.154,762.616,425.378,769.417z
			 M414.343,721.255c-4.707-4.4-10.02-6.605-15.931-6.605c-0.761,0-1.567,0.053-2.428,0.154c-0.861,0.105-1.701,0.257-2.527,0.468
			c-0.409,0.143-0.826,0.272-1.235,0.415c-0.417,0.131-0.826,0.273-1.237,0.411c-5.229,1.994-9.041,5.344-11.448,10.057
			c-2.409,4.705-3.683,9.711-3.824,15.006c0,0.138,0,0.293,0,0.464s0,0.325,0,0.464c0,2.063,0.177,4.106,0.519,6.138
			c0.348,2.026,0.826,3.972,1.443,5.823c1.931,5.434,5.264,10.37,10.012,14.802c4.741,4.433,10.036,6.654,15.88,6.654
			c1.233,0,2.477-0.122,3.711-0.362c1.239-0.239,2.477-0.598,3.712-1.082c5.226-1.994,9.046-5.348,11.455-10.057
			c2.403-4.709,3.671-9.707,3.809-15.01c0-0.13,0-0.289,0-0.464c0-0.167,0-0.321,0-0.464c0-2.064-0.169-4.107-0.511-6.138
			c-0.346-2.023-0.826-3.972-1.449-5.823C422.372,730.606,419.05,725.654,414.343,721.255z"/>
		<path d="M515.368,714.141c-1.309,0-2.473,0.545-3.508,1.64c-1.028,1.107-1.79,2.312-2.269,3.614
			c-0.207,0.415-0.342,0.826-0.413,1.241c-0.063,0.411-0.104,0.822-0.104,1.233v32.9c0,7.362-2.786,13.174-8.35,17.435
			c-5.573,4.266-11.69,6.703-18.359,7.318c-0.558,0-1.085,0.02-1.602,0.057c-0.517,0.032-1.05,0.049-1.603,0.049
			c-0.547,0-1.078-0.017-1.591-0.049c-0.517-0.037-1.054-0.057-1.601-0.057c-6.668-0.615-12.786-3.053-18.359-7.318
			c-5.573-4.261-8.353-10.072-8.353-17.435v-32.9c0-0.411-0.037-0.822-0.106-1.233c-0.069-0.415-0.204-0.826-0.407-1.241
			c-0.489-1.303-1.246-2.507-2.269-3.614c-1.036-1.095-2.204-1.64-3.512-1.64h-1.443v-2.271c1.994,0,4.005,0,6.034,0
			c2.024,0,4.076,0,6.137,0c1.992,0,4.009,0,6.034,0c2.024,0,4.041,0,6.035,0v2.271h-1.961c-1.302,0-2.459,0.545-3.453,1.64
			c-1,1.107-1.74,2.312-2.218,3.614c-0.209,0.415-0.348,0.826-0.411,1.241c-0.071,0.411-0.106,0.822-0.106,1.233v28.261
			c0,6.809,1.751,12.653,5.263,17.541c3.504,4.88,8.937,7.317,16.289,7.317c7.365,0,12.798-2.438,16.302-7.317
			c3.506-4.888,5.262-10.732,5.262-17.541v-28.261c0-0.411-0.039-0.822-0.11-1.233c-0.069-0.415-0.203-0.826-0.407-1.241
			c-0.482-1.303-1.223-2.507-2.218-3.614c-0.995-1.095-2.151-1.64-3.453-1.64h-2.065v-2.271c4.056,0,8.129,0,12.224,0
			c4.09,0,8.16,0,12.22,0v2.271H515.368z"/>
		<path d="M566.113,778.183c-1.38-1.371-2.698-3.072-3.97-5.099c-1.274-2.035-2.499-4.115-3.663-6.239
			c-0.138-0.277-0.278-0.533-0.413-0.781c-0.138-0.236-0.273-0.464-0.413-0.668c-0.069-0.138-0.154-0.289-0.258-0.464
			c-0.1-0.167-0.189-0.325-0.258-0.464c-2.06-3.781-4.279-7.252-6.648-10.419c-2.377-3.158-5.285-4.843-8.716-5.055
			c-0.488-0.065-1.001-0.102-1.555-0.102c-0.545,0-1.062,0-1.541,0c-0.209,0-0.398,0-0.567,0c-0.173,0-0.364,0.036-0.566,0.102
			c-0.35,0-0.688,0-1.036,0c-0.344,0-0.686,0-1.032,0c0,3.167,0,6.345,0,9.544s0,6.414,0,9.642c0,0.411,0.055,0.847,0.157,1.29
			c0.104,0.447,0.224,0.879,0.356,1.286c0.483,1.311,1.246,2.515,2.271,3.614c1.034,1.099,2.169,1.652,3.407,1.652
			c0.272,0,0.533,0,0.771,0c0.238,0,0.497,0,0.775,0v2.16h-23.827v-2.16c0.206,0,0.435,0,0.671,0c0.24,0,0.499,0,0.777,0
			c1.302,0,2.472-0.554,3.504-1.652c1.034-1.1,1.789-2.304,2.269-3.614c0.136-0.407,0.256-0.839,0.362-1.286
			c0.104-0.443,0.153-0.879,0.153-1.29c0-7.978,0-15.982,0-24.028c0-8.046,0-16.092,0-24.139c0-1.514-0.538-2.853-1.6-4.021
			c-1.066-1.168-2.354-1.782-3.869-1.852c-0.272-0.073-0.565-0.09-0.875-0.058c-0.309,0.037-0.635,0.058-0.98,0.058
			c-0.139,0-0.291,0-0.462,0c-0.175,0-0.328,0-0.462,0v-2.271h27.841c5.161,0,9.851,1.718,14.08,5.157
			c4.231,3.435,6.345,7.903,6.345,13.405c0,3.92-1.185,7.396-3.557,10.419c-2.375,3.023-5.344,5.222-8.921,6.598
			c1.443,1.033,2.662,2.238,3.657,3.609c1,1.38,1.98,2.861,2.945,4.436c0.409,0.691,0.836,1.375,1.284,2.064
			c0.447,0.688,0.915,1.379,1.393,2.067c0.139,0.272,0.293,0.533,0.466,0.768c0.171,0.24,0.358,0.501,0.567,0.773
			c0.141,0.139,0.259,0.289,0.358,0.464c0.106,0.171,0.224,0.358,0.364,0.57c2.472,3.577,5.02,6.768,7.631,9.593
			c2.613,2.82,5.637,4.229,9.076,4.229v2.16H566.113z M556.778,735.999c0.651-1.647,0.975-3.333,0.975-5.051
			c0-3.577-1.323-6.813-3.972-9.693c-2.646-2.886-6.062-4.335-10.258-4.335h-8.046v27.643c0.206,0,0.413,0,0.625,0
			c0.202,0,0.407,0,0.617,0c0.208,0,0.425,0,0.666,0c0.244,0,0.497,0,0.775,0c2.818,0.069,5.553-0.049,8.201-0.366
			c2.648-0.306,5.069-1.526,7.275-3.65C555.077,739.166,556.121,737.651,556.778,735.999z"/>
		<path d="M691.829,714.141c-1.302,0-2.49,0.545-3.549,1.64c-1.074,1.107-1.848,2.312-2.327,3.614
			c-0.139,0.415-0.261,0.826-0.358,1.241c-0.105,0.411-0.154,0.822-0.154,1.233v56.314h-3.297l-49.001-53.73v43.727
			c0,0.411,0.058,0.847,0.155,1.29c0.106,0.447,0.228,0.879,0.366,1.286c0.472,1.311,1.237,2.515,2.271,3.614
			c1.025,1.099,2.165,1.652,3.402,1.652h3.817v2.16c-1.929,0-3.858,0-5.779,0c-1.929,0-3.817,0-5.673,0c-1.921,0-3.851,0-5.779,0
			c-1.921,0-3.85,0-5.771,0v-2.16h2.475c1.237,0,2.377-0.554,3.402-1.652c1.034-1.1,1.783-2.304,2.271-3.614
			c0.139-0.407,0.26-0.839,0.366-1.286c0.098-0.443,0.146-0.879,0.146-1.29v-48.265c-1.857-1.79-3.899-3.202-6.138-4.229
			c-2.231-1.037-4.655-1.546-7.269-1.546v-2.271h19.088l46.819,50.946v-40.946c0-0.411-0.033-0.822-0.098-1.233
			c-0.073-0.415-0.212-0.826-0.415-1.241c-0.48-1.303-1.237-2.507-2.271-3.614c-1.033-1.095-2.206-1.64-3.508-1.64h-3.72v-2.271
			h23.727v2.271H691.829z"/>
		<path d="M741.44,778.183v-2.16h1.547c0.684,0,1.343-0.155,1.962-0.469c0.618-0.309,1.099-0.704,1.44-1.184
			c0.212-0.204,0.366-0.428,0.472-0.672c0.098-0.236,0.147-0.501,0.147-0.773c0.065-0.139,0.106-0.256,0.106-0.362
			c0-0.102,0-0.216,0-0.358c0-0.207-0.017-0.41-0.049-0.622c-0.041-0.199-0.09-0.411-0.155-0.614l-6.813-17.533h-23.304
			l-4.852,14.334c-0.065,0.207-0.122,0.395-0.154,0.565c-0.041,0.175-0.049,0.362-0.049,0.565c-0.073,0.212-0.105,0.403-0.105,0.57
			c0,0.175,0,0.362,0,0.565c0,1.168,0.325,2.267,0.977,3.305c0.659,1.03,1.636,1.787,2.938,2.271
			c0.415,0.065,0.879,0.15,1.399,0.256c0.513,0.102,1.051,0.155,1.596,0.155v2.16h-21.66v-2.16h1.547
			c0.351,0,0.725-0.054,1.14-0.155c0.407-0.105,0.822-0.256,1.237-0.468c0.961-0.481,1.921-1.148,2.882-2.011
			c0.968-0.858,1.782-1.771,2.482-2.73c0.342-0.481,0.627-0.965,0.871-1.445c0.235-0.479,0.431-0.928,0.569-1.343l18.771-56.001
			h6.601l21.66,56.001c0.203,0.415,0.447,0.879,0.725,1.396c0.276,0.517,0.618,1.013,1.025,1.489
			c0.691,0.826,1.465,1.636,2.328,2.43c0.854,0.794,1.766,1.457,2.727,2.011c0.488,0.203,0.96,0.398,1.44,0.565
			c0.488,0.175,0.969,0.261,1.449,0.261h1.546v2.16H741.44z M727.62,721.458l-9.174,27.231h19.796L727.62,721.458z"/>
		<path d="M829.626,778.183v-2.16h1.546c1.246,0,2.288-0.518,3.15-1.551c0.863-1.03,1.457-2.125,1.799-3.301
			c0.146-0.342,0.227-0.688,0.268-1.029c0.032-0.347,0.041-0.689,0.041-1.03c-0.065-0.143-0.098-0.272-0.098-0.415
			c0-0.139,0-0.236,0-0.305l-5.161-43.841l-19.901,53.632h-2.89l-24.028-50.327l-3.72,40.43c0,0.411,0.017,0.839,0.058,1.29
			c0.032,0.448,0.122,0.908,0.252,1.393c0.415,1.236,1.05,2.389,1.913,3.451c0.862,1.07,1.938,1.604,3.247,1.604h1.547v2.16h-19.796
			v-2.16h1.441c1.302,0,2.539-0.57,3.711-1.701c1.164-1.136,2.027-2.361,2.572-3.663c0.212-0.481,0.383-0.928,0.521-1.343
			c0.138-0.416,0.203-0.826,0.203-1.242l4.33-47.336c-1.506-2.064-3.418-3.679-5.722-4.851c-2.304-1.169-4.729-1.746-7.268-1.746
			l-0.107-2.271h19.088l25.168,52.704l19.486-52.704h18.876v2.271h-5.567h-0.106c-1.376,0-2.563,0.492-3.557,1.489
			c-1.001,1.001-1.466,2.223-1.393,3.663c0,0.069,0,0.154,0,0.261c0,0.102,0,0.22,0,0.361l5.666,48.061
			c0.073,0.342,0.146,0.704,0.211,1.079c0.065,0.383,0.204,0.777,0.415,1.188c0.546,1.444,1.408,2.768,2.581,3.972
			c1.163,1.205,2.507,1.808,4.013,1.808h1.555v2.16H829.626z"/>
		<path d="M902.549,778.183H856.03v-2.16h1.547c1.237,0,2.377-0.554,3.41-1.652c1.026-1.1,1.783-2.304,2.264-3.614
			c0.138-0.407,0.26-0.839,0.366-1.286c0.098-0.443,0.154-0.879,0.154-1.29v-48.167c0-1.644-0.569-3.04-1.701-4.171
			c-1.14-1.14-2.531-1.701-4.184-1.701h-1.547v-2.271h45.379v11.652h-2.263c0-1.994-0.692-3.675-2.06-5.055
			c-1.384-1.376-3.061-2.06-5.055-2.06h-20.113v25.681h17.736c1.994,0,3.679-0.708,5.055-2.112c1.376-1.412,2.067-3.081,2.067-5.006
			h2.157v18.774h-2.157c0-1.994-0.691-3.695-2.067-5.108c-1.376-1.403-3.06-2.116-5.055-2.116h-17.736v19.495
			c0,0.276,0.017,0.533,0.049,0.773c0.032,0.244,0.09,0.504,0.155,0.777c0.342,1.578,1.172,3.007,2.474,4.273
			c1.303,1.278,2.987,1.913,5.055,1.913h12.275c2.678,0,5.16-1.033,7.423-3.093c2.271-2.067,3.712-4.335,4.33-6.805l2.067,0.509
			L902.549,778.183z"/>
	</g>
	<g>
		<path d="M425.754,826.679c-1.343,1.091-2.814,1.73-4.422,1.905c-0.134,0-0.274,0.004-0.413,0.012
			c-0.142,0.017-0.276,0.021-0.411,0.021c-0.574,0-1.146-0.061-1.718-0.183c-0.578-0.122-1.125-0.306-1.652-0.542v6.337
			c0,0.135,0.017,0.265,0.051,0.415c0.029,0.143,0.067,0.281,0.112,0.411c0.156,0.419,0.395,0.806,0.714,1.156
			c0.317,0.354,0.686,0.533,1.103,0.533h1.622v0.688h-9.214v-0.688h0.926c0.393,0,0.755-0.18,1.085-0.533
			c0.328-0.351,0.578-0.737,0.727-1.156c0.044-0.13,0.085-0.269,0.12-0.411c0.029-0.15,0.049-0.28,0.049-0.415v-15.425
			c0-0.5-0.189-0.943-0.567-1.315c-0.366-0.374-0.812-0.565-1.317-0.565h-1.156v-0.725h9.117c1.823,0,3.496,0.525,5,1.583
			c1.51,1.059,2.263,2.601,2.263,4.624C427.771,824.168,427.1,825.593,425.754,826.679z M424.703,822.275
			c0-0.085-0.01-0.175-0.033-0.265c-0.089-1.123-0.486-2.152-1.192-3.085c-0.708-0.936-1.671-1.412-2.906-1.412h-3.433v9.088
			c0.308,0.306,0.665,0.533,1.075,0.676c0.407,0.146,0.826,0.24,1.267,0.276c0.175,0.029,0.354,0.045,0.533,0.054
			c0.171,0.016,0.34,0.016,0.495,0.016c1.208,0,2.171-0.46,2.889-1.384c0.716-0.928,1.134-1.941,1.272-3.044
			c0-0.106,0-0.216,0.01-0.325c0.016-0.11,0.022-0.22,0.022-0.334C424.703,822.455,424.703,822.365,424.703,822.275z"/>
		<path d="M464.038,837.432c-0.643,0-1.284,0-1.921,0c-0.637,0-1.273,0-1.911,0c-0.641,0-1.284,0-1.921,0v-0.688h0.499
			c0.397,0,0.755-0.18,1.089-0.533c0.333-0.351,0.572-0.737,0.729-1.156c0.044-0.13,0.083-0.269,0.112-0.411
			c0.035-0.15,0.051-0.28,0.051-0.415v-6.572h-13.011v6.572c0,0.135,0.016,0.265,0.051,0.415c0.035,0.143,0.069,0.281,0.114,0.411
			c0.154,0.419,0.396,0.806,0.726,1.156c0.328,0.354,0.696,0.533,1.089,0.533h0.493v0.688c-1.274,0-2.546,0-3.812,0
			c-1.264,0-2.546,0-3.844,0v-0.688h0.493c0.397,0,0.761-0.18,1.093-0.533c0.33-0.351,0.568-0.737,0.727-1.156
			c0.039-0.13,0.081-0.269,0.11-0.411c0.04-0.15,0.051-0.28,0.051-0.415v-15.425c0-0.5-0.179-0.943-0.544-1.315
			c-0.362-0.374-0.8-0.565-1.302-0.565c-0.089,0-0.175,0-0.25,0c-0.073,0-0.169,0-0.285,0v-0.725c1.262,0,2.509,0,3.752,0
			c1.245,0,2.484,0,3.718,0v0.725c-0.09,0-0.175,0-0.249,0c-0.075,0-0.161,0-0.25,0c-0.527,0-0.969,0.191-1.337,0.565
			c-0.358,0.371-0.543,0.815-0.543,1.315v7.298h13.011v-7.298c0-0.5-0.179-0.943-0.547-1.315c-0.358-0.374-0.796-0.565-1.304-0.565
			c-0.039,0-0.09,0-0.128,0c-0.045,0-0.089,0-0.13,0c-0.049,0-0.089,0-0.132,0c-0.044,0-0.089,0-0.134,0v-0.725
			c0.615,0,1.237,0,1.868,0c0.627,0,1.246,0,1.862,0c0.617,0,1.239,0,1.873,0c0.625,0,1.241,0,1.86,0v0.725c-0.09,0-0.171,0-0.25,0
			c-0.073,0-0.169,0-0.279,0c-0.507,0-0.94,0.191-1.302,0.565c-0.364,0.371-0.547,0.815-0.547,1.315v15.425
			c0,0.135,0.021,0.265,0.049,0.415c0.035,0.143,0.071,0.281,0.12,0.411c0.148,0.419,0.399,0.806,0.727,1.156
			c0.327,0.354,0.691,0.533,1.084,0.533h0.497v0.688C465.309,837.432,464.674,837.432,464.038,837.432z"/>
		<path d="M499.189,834.628c-2.169,2.177-4.772,3.268-7.812,3.268c-3.014,0-5.616-1.091-7.798-3.268
			c-2.177-2.182-3.262-4.778-3.262-7.798c0-3.036,1.085-5.649,3.262-7.843c2.182-2.19,4.784-3.288,7.798-3.288
			c3.04,0,5.643,1.099,7.812,3.288c2.169,2.193,3.254,4.807,3.254,7.843C502.442,829.85,501.358,832.446,499.189,834.628z
			 M495.65,819.203c-1.502-1.408-3.203-2.116-5.1-2.116c-0.242,0-0.503,0.016-0.777,0.049c-0.273,0.036-0.541,0.089-0.81,0.15
			c-0.128,0.045-0.258,0.09-0.393,0.134c-0.134,0.041-0.263,0.086-0.393,0.131c-1.677,0.643-2.896,1.713-3.671,3.219
			c-0.768,1.51-1.174,3.109-1.219,4.807c0,0.045,0,0.094,0,0.146c0,0.057,0,0.105,0,0.155c0,0.659,0.055,1.31,0.163,1.961
			c0.11,0.647,0.262,1.27,0.464,1.864c0.614,1.737,1.687,3.321,3.203,4.737c1.518,1.424,3.215,2.133,5.085,2.133
			c0.393,0,0.792-0.037,1.189-0.114c0.399-0.073,0.797-0.191,1.19-0.35c1.67-0.636,2.895-1.71,3.667-3.22
			c0.765-1.506,1.174-3.109,1.223-4.803c0-0.04,0-0.093,0-0.147c0-0.053,0-0.105,0-0.15c0-0.663-0.059-1.318-0.169-1.966
			c-0.11-0.651-0.264-1.273-0.457-1.863C498.228,822.198,497.164,820.611,495.65,819.203z"/>
		<path d="M536.918,820.559v0.032l-0.692-0.102c0-0.017,0-0.037,0-0.049c0-0.009,0.012-0.029,0.032-0.049c0-0.017,0-0.045,0-0.065
			c0-0.024,0-0.041,0-0.069c0-0.085-0.01-0.175-0.02-0.265c-0.008-0.081-0.024-0.171-0.047-0.26
			c-0.132-0.44-0.385-0.847-0.759-1.222c-0.377-0.378-0.793-0.561-1.253-0.561h-5.58v16.279c0,0.135,0.012,0.265,0.047,0.415
			c0.032,0.143,0.071,0.281,0.116,0.411c0.155,0.419,0.393,0.806,0.711,1.156c0.319,0.354,0.688,0.533,1.107,0.533h0.497v0.688
			h-7.664v-0.688h0.498c0.395,0,0.755-0.18,1.085-0.533c0.328-0.351,0.576-0.737,0.727-1.156c0.045-0.13,0.083-0.269,0.12-0.411
			c0.03-0.15,0.049-0.28,0.049-0.415v-16.279h-5.154c-0.021,0-0.049,0-0.08,0c-0.035,0-0.063,0-0.085,0
			c-0.462,0.065-0.899,0.289-1.309,0.676c-0.403,0.387-0.686,0.798-0.834,1.237c-0.049,0.109-0.081,0.22-0.1,0.334
			c-0.027,0.105-0.037,0.215-0.037,0.325h-0.724v-5.376l0.661-0.175c0.308,0.513,0.665,0.842,1.085,0.992
			c0.419,0.163,0.905,0.236,1.453,0.236h13.542c0.598,0,1.115-0.09,1.571-0.265c0.448-0.179,0.853-0.509,1.207-0.988l0.626,0.26
			L536.918,820.559z"/>
		<path d="M571.615,834.628c-2.169,2.177-4.776,3.268-7.812,3.268c-3.016,0-5.617-1.091-7.796-3.268
			c-2.182-2.182-3.268-4.778-3.268-7.798c0-3.036,1.086-5.649,3.268-7.843c2.179-2.19,4.78-3.288,7.796-3.288
			c3.036,0,5.643,1.099,7.812,3.288c2.169,2.193,3.254,4.807,3.254,7.843C574.869,829.85,573.784,832.446,571.615,834.628z
			 M568.076,819.203c-1.506-1.408-3.209-2.116-5.099-2.116c-0.245,0-0.503,0.016-0.775,0.049c-0.279,0.036-0.547,0.089-0.812,0.15
			c-0.134,0.045-0.263,0.09-0.393,0.134c-0.134,0.041-0.269,0.086-0.397,0.131c-1.673,0.643-2.896,1.713-3.667,3.219
			c-0.771,1.51-1.18,3.109-1.219,4.807c0,0.045,0,0.094,0,0.146c0,0.057,0,0.105,0,0.155c0,0.659,0.049,1.31,0.159,1.961
			c0.11,0.647,0.269,1.27,0.468,1.864c0.617,1.737,1.681,3.321,3.203,4.737c1.512,1.424,3.215,2.133,5.086,2.133
			c0.393,0,0.792-0.037,1.184-0.114c0.399-0.073,0.796-0.191,1.194-0.35c1.671-0.636,2.896-1.71,3.661-3.22
			c0.771-1.506,1.18-3.109,1.225-4.803c0-0.04,0-0.093,0-0.147c0-0.053,0-0.105,0-0.15c0-0.663-0.055-1.318-0.169-1.966
			c-0.11-0.651-0.261-1.273-0.458-1.863C570.648,822.198,569.584,820.611,568.076,819.203z"/>
		<path d="M611.117,827.656c-0.546,0-1.018,0.179-1.417,0.524c-0.398,0.354-0.594,0.79-0.594,1.29v8.359h-0.595
			c-0.244-0.179-0.504-0.309-0.789-0.398c-0.293-0.09-0.586-0.134-0.896-0.134c-0.154,0-0.293,0.016-0.432,0.036
			c-0.13,0.024-0.26,0.053-0.391,0.098c-0.285,0.065-0.61,0.135-0.977,0.199c-0.366,0.065-0.745,0.11-1.138,0.131
			c-0.354,0.044-0.706,0.077-1.062,0.098c-0.349,0.024-0.672,0.036-0.953,0.036c-3.084,0-5.813-1.05-8.19-3.154
			c-2.378-2.104-3.567-4.737-3.567-7.911c0-3.187,1.189-5.845,3.567-7.957c2.377-2.112,5.106-3.174,8.19-3.174
			c0.153,0,0.308,0.012,0.46,0.019c0.157,0.013,0.312,0.017,0.464,0.017c0.638,0.041,1.264,0.139,1.879,0.276
			c0.618,0.143,1.213,0.338,1.79,0.582c0.065,0.021,0.131,0.037,0.188,0.054c0.073,0.008,0.146,0.016,0.236,0.016
			c0.049,0,0.081,0,0.122,0c0.032,0,0.065-0.012,0.106-0.036c0.09,0,0.18-0.017,0.252-0.049c0.082-0.033,0.147-0.073,0.212-0.118
			c0.114-0.062,0.204-0.146,0.268-0.244c0.065-0.102,0.107-0.191,0.131-0.281l0.691,0.102v5.349h-0.757
			c-0.22-0.595-0.513-1.128-0.896-1.592c-0.374-0.456-0.798-0.847-1.277-1.151c-0.538-0.375-1.115-0.648-1.755-0.826
			c-0.643-0.176-1.314-0.265-2.017-0.265c-2.596,0-4.715,0.915-6.359,2.743c-1.642,1.823-2.458,4.004-2.458,6.536
			c0,2.466,0.812,4.668,2.444,6.604c1.626,1.938,3.75,2.906,6.373,2.906c0.283,0,0.608-0.012,0.955-0.045
			c0.354-0.036,0.708-0.085,1.061-0.154c0.46-0.062,0.899-0.163,1.315-0.293c0.424-0.135,0.798-0.285,1.132-0.464v-5.914
			c0-0.5-0.195-0.936-0.586-1.29c-0.383-0.346-0.863-0.524-1.433-0.524h-0.462v-0.729c1.275,0,2.546,0,3.815,0
			c1.262,0,2.539,0,3.81,0v0.729H611.117z"/>
		<path d="M641.307,837.432c-0.439-0.435-0.862-0.985-1.269-1.636c-0.399-0.648-0.798-1.311-1.172-1.994
			c-0.041-0.09-0.09-0.171-0.131-0.249c-0.049-0.073-0.081-0.15-0.13-0.216c-0.024-0.044-0.049-0.093-0.09-0.15
			c-0.024-0.053-0.057-0.102-0.073-0.146c-0.667-1.209-1.375-2.323-2.133-3.337c-0.757-1.01-1.692-1.547-2.791-1.616
			c-0.155-0.02-0.326-0.032-0.497-0.032s-0.342,0-0.496,0c-0.065,0-0.122,0-0.18,0c-0.057,0-0.113,0.013-0.186,0.032
			c-0.107,0-0.212,0-0.326,0c-0.114,0-0.22,0-0.325,0c0,1.01,0,2.031,0,3.057c0,1.018,0,2.052,0,3.085
			c0,0.135,0.008,0.265,0.049,0.415c0.032,0.143,0.065,0.281,0.113,0.411c0.155,0.419,0.392,0.806,0.725,1.156
			c0.326,0.354,0.692,0.533,1.091,0.533c0.09,0,0.171,0,0.244,0c0.082,0,0.163,0,0.244,0v0.688h-7.618v-0.688
			c0.057,0,0.13,0,0.203,0c0.081,0,0.163,0,0.252,0c0.424,0,0.798-0.18,1.124-0.533c0.325-0.351,0.577-0.737,0.732-1.156
			c0.041-0.13,0.073-0.269,0.114-0.411c0.032-0.15,0.049-0.28,0.049-0.415c0-2.552,0-5.12,0-7.691c0-2.576,0-5.152,0-7.733
			c0-0.484-0.171-0.911-0.514-1.29c-0.342-0.374-0.757-0.569-1.236-0.59c-0.09-0.021-0.18-0.028-0.277-0.017
			c-0.105,0.013-0.212,0.017-0.317,0.017c-0.041,0-0.098,0-0.146,0c-0.057,0-0.105,0-0.154,0v-0.725h8.921
			c1.652,0,3.15,0.554,4.501,1.652c1.359,1.095,2.035,2.531,2.035,4.29c0,1.253-0.383,2.364-1.14,3.333
			c-0.757,0.973-1.718,1.677-2.857,2.116c0.465,0.33,0.856,0.716,1.173,1.156c0.317,0.439,0.635,0.915,0.944,1.42
			c0.13,0.22,0.269,0.439,0.415,0.659c0.138,0.224,0.293,0.439,0.447,0.663c0.032,0.09,0.09,0.172,0.146,0.244
			c0.057,0.082,0.114,0.159,0.179,0.249c0.041,0.049,0.082,0.098,0.114,0.154c0.032,0.053,0.073,0.11,0.122,0.179
			c0.79,1.14,1.596,2.17,2.442,3.069c0.83,0.903,1.799,1.359,2.898,1.359v0.688H641.307z M638.319,823.924
			c0.212-0.529,0.317-1.066,0.317-1.615c0-1.144-0.431-2.182-1.27-3.106c-0.854-0.924-1.953-1.388-3.288-1.388h-2.572v8.852
			c0.065,0,0.122,0,0.188,0c0.072,0,0.138,0,0.203,0c0.065,0,0.139,0,0.212,0c0.081,0,0.162,0,0.252,0
			c0.903,0.024,1.774-0.017,2.621-0.118c0.854-0.098,1.628-0.488,2.328-1.172C637.774,824.938,638.116,824.453,638.319,823.924z"/>
		<path d="M675.452,837.432v-0.688h0.505c0.22,0,0.424-0.054,0.627-0.155c0.195-0.098,0.35-0.224,0.456-0.378
			c0.065-0.069,0.122-0.139,0.154-0.216c0.033-0.073,0.049-0.159,0.049-0.248c0.017-0.041,0.033-0.078,0.033-0.114
			c0-0.032,0-0.069,0-0.118c0-0.06-0.009-0.13-0.017-0.199c-0.009-0.061-0.024-0.126-0.049-0.195l-2.182-5.612h-7.464l-1.555,4.591
			c-0.017,0.065-0.041,0.122-0.049,0.179c-0.008,0.053-0.017,0.118-0.017,0.188c-0.024,0.061-0.032,0.122-0.032,0.179
			c0,0.053,0,0.114,0,0.184c0,0.374,0.105,0.725,0.317,1.054c0.203,0.33,0.521,0.574,0.936,0.725
			c0.139,0.028,0.285,0.053,0.448,0.085c0.163,0.033,0.334,0.054,0.513,0.054v0.688h-6.935v-0.688h0.496
			c0.114,0,0.228-0.021,0.366-0.054c0.122-0.032,0.261-0.085,0.391-0.146c0.31-0.154,0.619-0.37,0.928-0.65
			c0.31-0.273,0.57-0.566,0.79-0.871c0.105-0.154,0.203-0.306,0.285-0.46c0.073-0.159,0.13-0.302,0.179-0.432l6.007-17.932h2.116
			l6.935,17.932c0.065,0.13,0.146,0.281,0.235,0.448c0.082,0.162,0.195,0.321,0.326,0.476c0.22,0.261,0.464,0.525,0.74,0.777
			c0.277,0.253,0.57,0.468,0.879,0.648c0.155,0.064,0.31,0.122,0.456,0.179c0.163,0.053,0.31,0.086,0.464,0.086h0.505v0.688H675.452
			z M671.033,819.268l-2.939,8.718h6.341L671.033,819.268z"/>
		<path d="M711.552,826.679c-1.343,1.091-2.816,1.73-4.42,1.905c-0.138,0-0.268,0.004-0.415,0.012
			c-0.146,0.017-0.284,0.021-0.415,0.021c-0.569,0-1.14-0.061-1.718-0.183c-0.569-0.122-1.123-0.306-1.644-0.542v6.337
			c0,0.135,0.008,0.265,0.04,0.415c0.033,0.143,0.073,0.281,0.122,0.411c0.147,0.419,0.392,0.806,0.709,1.156
			c0.317,0.354,0.684,0.533,1.106,0.533h1.612v0.688h-9.215v-0.688h0.928c0.399,0,0.758-0.18,1.091-0.533
			c0.334-0.351,0.57-0.737,0.725-1.156c0.049-0.13,0.081-0.269,0.122-0.411c0.033-0.15,0.049-0.28,0.049-0.415v-15.425
			c0-0.5-0.188-0.943-0.562-1.315c-0.383-0.374-0.813-0.565-1.327-0.565h-1.155v-0.725h9.116c1.823,0,3.492,0.525,5.006,1.583
			c1.506,1.059,2.263,2.601,2.263,4.624C713.57,824.168,712.896,825.593,711.552,826.679z M710.494,822.275
			c0-0.085-0.009-0.175-0.033-0.265c-0.081-1.123-0.479-2.152-1.188-3.085c-0.699-0.936-1.668-1.412-2.905-1.412h-3.427v9.088
			c0.301,0.306,0.659,0.533,1.074,0.676c0.398,0.146,0.822,0.24,1.262,0.276c0.179,0.029,0.358,0.045,0.529,0.054
			c0.179,0.016,0.342,0.016,0.496,0.016c1.213,0,2.174-0.46,2.89-1.384c0.708-0.928,1.14-1.941,1.269-3.044
			c0-0.106,0.009-0.216,0.024-0.325c0.009-0.11,0.009-0.22,0.009-0.334C710.494,822.455,710.494,822.365,710.494,822.275z"/>
		<path d="M749.824,837.432c-0.635,0-1.277,0-1.912,0c-0.644,0-1.278,0-1.913,0c-0.643,0-1.286,0-1.921,0v-0.688h0.496
			c0.399,0,0.766-0.18,1.091-0.533c0.334-0.351,0.57-0.737,0.725-1.156c0.041-0.13,0.081-0.269,0.122-0.411
			c0.024-0.15,0.049-0.28,0.049-0.415v-6.572h-13.016v6.572c0,0.135,0.017,0.265,0.049,0.415c0.033,0.143,0.073,0.281,0.114,0.411
			c0.154,0.419,0.398,0.806,0.732,1.156c0.326,0.354,0.692,0.533,1.091,0.533h0.488v0.688c-1.269,0-2.548,0-3.81,0
			c-1.27,0-2.556,0-3.85,0v-0.688h0.496c0.391,0,0.758-0.18,1.091-0.533c0.326-0.351,0.57-0.737,0.725-1.156
			c0.041-0.13,0.09-0.269,0.114-0.411c0.032-0.15,0.049-0.28,0.049-0.415v-15.425c0-0.5-0.18-0.943-0.537-1.315
			c-0.366-0.374-0.806-0.565-1.31-0.565c-0.09,0-0.171,0-0.244,0c-0.082,0-0.171,0-0.285,0v-0.725c1.254,0,2.507,0,3.752,0
			c1.246,0,2.475,0,3.712,0v0.725c-0.081,0-0.171,0-0.244,0c-0.081,0-0.163,0-0.252,0c-0.521,0-0.969,0.191-1.335,0.565
			c-0.366,0.371-0.546,0.815-0.546,1.315v7.298h13.016v-7.298c0-0.5-0.188-0.943-0.545-1.315c-0.366-0.374-0.798-0.565-1.303-0.565
			c-0.049,0-0.09,0-0.139,0c-0.04,0-0.081,0-0.13,0c-0.041,0-0.09,0-0.13,0c-0.049,0-0.09,0-0.139,0v-0.725c0.627,0,1.245,0,1.872,0
			c0.627,0,1.245,0,1.864,0c0.618,0,1.237,0,1.863,0c0.636,0,1.254,0,1.872,0v0.725c-0.089,0-0.171,0-0.252,0
			c-0.073,0-0.171,0-0.276,0c-0.513,0-0.944,0.191-1.31,0.565c-0.366,0.371-0.546,0.815-0.546,1.315v15.425
			c0,0.135,0.017,0.265,0.058,0.415c0.032,0.143,0.064,0.281,0.105,0.411c0.163,0.419,0.398,0.806,0.732,1.156
			c0.334,0.354,0.7,0.533,1.091,0.533h0.496v0.688C751.102,837.432,750.468,837.432,749.824,837.432z"/>
		<path d="M788.171,816.924c-0.668,0-1.295,0.195-1.905,0.574c-0.594,0.391-1.115,0.821-1.53,1.306l-5.844,7.037v8.388
			c0,0.135,0.008,0.265,0.049,0.415c0.032,0.143,0.065,0.281,0.113,0.411c0.155,0.419,0.383,0.806,0.709,1.156
			c0.317,0.354,0.691,0.533,1.106,0.533h0.497v0.688h-7.66v-0.688h0.488c0.399,0,0.766-0.18,1.091-0.533
			c0.334-0.351,0.57-0.737,0.725-1.156c0.049-0.13,0.09-0.269,0.122-0.411c0.032-0.15,0.041-0.28,0.041-0.415v-7.892l-6.235-7.533
			c-0.374-0.415-0.83-0.793-1.367-1.135s-1.107-0.57-1.701-0.68c-0.114-0.021-0.236-0.037-0.366-0.049
			c-0.131-0.009-0.253-0.017-0.366-0.017v-0.725h9.588v0.725h-1.555c-0.049,0-0.089,0-0.122,0c-0.032,0-0.064,0-0.113,0
			c-0.106,0.021-0.212,0.053-0.302,0.102c-0.081,0.041-0.154,0.11-0.187,0.199c-0.033,0.017-0.041,0.049-0.041,0.078
			c0,0.032,0,0.073,0,0.117c0,0.041,0.008,0.09,0.017,0.147c0.008,0.058,0.032,0.106,0.049,0.146
			c0.024,0.11,0.064,0.229,0.138,0.334c0.058,0.11,0.131,0.212,0.195,0.293c0.024,0.028,0.049,0.062,0.082,0.102
			c0.032,0.045,0.057,0.078,0.081,0.098l4.656,5.621l4.224-5.055c0.139-0.175,0.245-0.354,0.334-0.529
			c0.09-0.175,0.131-0.362,0.131-0.562c0-0.065,0-0.135-0.017-0.199c-0.008-0.065-0.041-0.131-0.081-0.2
			c-0.082-0.215-0.236-0.391-0.44-0.513c-0.211-0.117-0.439-0.179-0.684-0.179h-0.691v-0.725c1.229,0,2.466,0,3.72,0
			c1.237,0,2.466,0,3.679,0v0.725H788.171z"/>
	</g>
</g>
</svg>
